# xmcd
#
# Track frame offsets:
#	150
#	22539
#	42542
#	73124
#	99014
#	137621
#	153878
#	194205
#	205425
#	222930
#	236691
#	250093
#	272157
#	306726
#	319830
#
# Disc length: 4637 seconds
#
# Revision: 0
# Processed by: cddbd v1.5.2PL0 Copyright (c) Steve Scherf et al.
# Submitted via: dBpowerAMP V4.0
#
DISCID=dd121b0f
DTITLE=Diversos - Blues Vol 01
DYEAR=2008
DGENRE=Blues
TTITLE0=Gary Moore - Midnight Blues
TTITLE1=Gary Moore - Oh Pretty Woman
TTITLE2=Gary Moore - Parisiense Walkways
TTITLE3=Gary Moore - The Blues is All Right
TTITLE4=Gary Moore and B B King - Thrill Is Gone
TTITLE5=Gary Moore - Don´t Let Me Be Misunderstood
TTITLE6=Gary Moore and Thin Lizzy - Still In Love With You (Live)
TTITLE7=Pumpkin and Honey Bunny - Miserlou
TTITLE8=Gary Moore - Spanish Guitar
TTITLE9=Ed Motta and Flavio Guimarães - The Love
TTITLE10=Flavio Guimarães - Telephone Blues
TTITLE11=Gary Moore - Separete Ways
TTITLE12=Gary Moore - Blues For Nara
TTITLE13=Gary Moore - Walking By Myself
TTITLE14=Gary Moore - I Still loving You
EXTD=
EXTT0=
EXTT1=
EXTT2=
EXTT3=
EXTT4=
EXTT5=
EXTT6=
EXTT7=
EXTT8=
EXTT9=
EXTT10=
EXTT11=
EXTT12=
EXTT13=
EXTT14=
PLAYORDER=
